<svg xmlns="http://www.w3.org/2000/svg" width="32" height="32" fill="none"><path fill="#484E53" d="M16 0C7.178 0 0 7.178 0 16s7.178 16 16 16 16-7.178 16-16S24.822 0 16 0m0 30.422c-7.952 0-14.422-6.47-14.422-14.422S8.048 1.578 16 1.578 30.422 8.048 30.422 16 23.952 30.422 16 30.422"/><path fill="#484E53" d="M15.933 7.058c-4.931 0-8.943 4.011-8.943 8.942 0 4.93 4.012 8.942 8.943 8.942 4.93 0 8.942-4.011 8.942-8.942 0-4.93-4.012-8.942-8.942-8.942m5.837 4.46a7.32 7.32 0 0 1 1.522 4.303c-1.866-.29-3.522-.248-4.974.01a32 32 0 0 0-.751-1.63c1.498-.636 2.96-1.502 4.203-2.683m-1.092-1.143c-1.12 1.062-2.464 1.842-3.85 2.413a33 33 0 0 0-2.565-3.96 7.35 7.35 0 0 1 6.415 1.547m-7.703-1.117-.232.19c.024.03 1.234 1.521 2.566 3.885-2.747.85-5.398.999-6.553 1.02a7.4 7.4 0 0 1 4.219-5.095M8.568 16l.002-.066c1.168-.001 4.274-.119 7.498-1.174q.36.72.683 1.454a12.86 12.86 0 0 0-6.439 4.537A7.33 7.33 0 0 1 8.568 16m2.89 5.844c.585-.864 2.433-3.185 5.884-4.184.598 1.594 1.085 3.335 1.317 5.148l.114-.014a7.3 7.3 0 0 1-2.84.57 7.33 7.33 0 0 1-4.475-1.52m8.683.193a25 25 0 0 0-1.233-4.713c1.246-.18 2.66-.184 4.254.075a7.38 7.38 0 0 1-3.021 4.638"/></svg>