<svg xmlns="http://www.w3.org/2000/svg" width="21" height="21" fill="none"><path fill="#000" d="M10.5 17.25a5.24 5.24 0 0 1-4.375-2.347l1.25-.83a3.75 3.75 0 0 0 6.25 0l1.25.83A5.24 5.24 0 0 1 10.5 17.25m3-8.25a1.5 1.5 0 1 0 1.5 1.5A1.485 1.485 0 0 0 13.5 9m-6 0A1.5 1.5 0 1 0 9 10.5 1.485 1.485 0 0 0 7.5 9"/><path fill="#000" d="M21 10.5V9h-1.5V6a3.004 3.004 0 0 0-3-3H15V0h-1.5v3h-6V0H6v3H4.5a3.004 3.004 0 0 0-3 3v3H0v1.5h1.5v3.75H0v1.5h1.5V18a3.004 3.004 0 0 0 3 3h12a3.004 3.004 0 0 0 3-3v-2.25H21v-1.5h-1.5V10.5zM18 18a1.5 1.5 0 0 1-1.5 1.5h-12A1.5 1.5 0 0 1 3 18V6a1.5 1.5 0 0 1 1.5-1.5h12A1.5 1.5 0 0 1 18 6z"/></svg>