<svg xmlns="http://www.w3.org/2000/svg" width="32" height="32" fill="none"><path fill="#484E53" d="M16 0C7.178 0 0 7.178 0 16s7.178 16 16 16 16-7.178 16-16S24.822 0 16 0m0 30.422c-7.952 0-14.422-6.47-14.422-14.422S8.048 1.578 16 1.578 30.422 8.048 30.422 16 23.952 30.422 16 30.422"/><path fill="#484E53" d="M21.002 8.293H10.989a2.68 2.68 0 0 0-2.678 2.679v10.059a2.68 2.68 0 0 0 2.678 2.678h10.013a2.68 2.68 0 0 0 2.678-2.678V10.97a2.68 2.68 0 0 0-2.678-2.678m-2.69 7.68a2.32 2.32 0 0 1-2.317 2.316 2.32 2.32 0 0 1-2.316-2.316c0-.634.257-1.208.67-1.627h3.293c.43.433.67 1.018.67 1.627m.671-5.536h2.346v2.416h-2.346zm2.019 11.694H10.989a1.1 1.1 0 0 1-1.1-1.1v-6.685h2.573a3.9 3.9 0 0 0-.36 1.627 3.9 3.9 0 0 0 3.893 3.894 3.9 3.9 0 0 0 3.895-3.894c0-.581-.132-1.13-.36-1.627h2.572v6.685a1.1 1.1 0 0 1-1.1 1.1"/></svg>