<svg xmlns="http://www.w3.org/2000/svg" width="32" height="32" fill="none"><path fill="#484E53" d="M16 0C7.178 0 0 7.178 0 16c0 8.823 7.178 16 16 16s16-7.177 16-16c0-8.822-7.178-16-16-16m0 30.422c-7.952 0-14.422-6.47-14.422-14.422S8.048 1.578 16 1.578 30.422 8.048 30.422 16 23.952 30.422 16 30.422"/><path fill="#484E53" d="M7.873 12.61h3.703v9.66H7.873zM9.688 11.068c1.035 0 1.874-.765 1.874-1.71 0-.944-.839-1.71-1.874-1.71s-1.874.766-1.874 1.71c0 .945.84 1.71 1.874 1.71M20.883 12.391q-1.136 0-1.929.414-.791.415-1.564 1.378V12.61H13.94v9.662h3.703v-4.64q0-1.32.419-1.828.418-.51 1.091-.51.61 0 .947.378.336.377.336 1.287v5.313h3.721v-6.14q0-1.911-.87-2.826-.867-.915-2.405-.914"/></svg>