<svg xmlns="http://www.w3.org/2000/svg" width="23" height="23" fill="none"><path fill="#484E53" d="M22.448 15.406c.255-.607-.474-1.125-1.085-.855a9.6 9.6 0 0 1-3.877.81c-5.231 0-9.471-4.155-9.471-9.28a9.1 9.1 0 0 1 1.417-4.888c.355-.56-.07-1.335-.72-1.17C3.7 1.3 0 5.766 0 11.078 0 17.386 5.219 22.5 11.658 22.5c4.874 0 9.05-2.931 10.79-7.094"/><path fill="#484E53" d="M15.764.129c-.663-.443-1.453.347-1.012 1.01l.788 1.181a2.915 2.915 0 0 1 0 3.235l-.788 1.181c-.44.663.35 1.453 1.013 1.01l1.18-.787a2.915 2.915 0 0 1 3.235 0l1.181.787c.663.443 1.453-.347 1.01-1.01l-.787-1.18a2.915 2.915 0 0 1 0-3.236l.787-1.181c.443-.663-.347-1.453-1.011-1.01l-1.18.787a2.915 2.915 0 0 1-3.235 0z"/></svg>