<svg xmlns="http://www.w3.org/2000/svg" width="21" height="16" fill="none"><path stroke="#050505" stroke-linecap="round" stroke-linejoin="round" d="M15.498 3.22H5.002c-.85 0-1.538.69-1.538 1.54v3.92c0 .85.689 1.54 1.538 1.54h10.496c.85 0 1.539-.69 1.539-1.54V4.76c0-.85-.69-1.54-1.539-1.54"/><path stroke="#050505" stroke-linecap="round" stroke-linejoin="round" d="M15.809.5a1.165 1.165 0 0 1 1.165 1.166v.215a1.86 1.86 0 0 0 1.86 1.86A1.165 1.165 0 0 1 20 4.906v3.579a1.165 1.165 0 0 1-1.165 1.165 1.86 1.86 0 0 0-1.86 1.86v.216a1.166 1.166 0 0 1-1.166 1.165h-9.36l-1.696 2.056c-.414.501-1.227.209-1.227-.441v-2.995a1.86 1.86 0 0 0-1.86-1.86A1.165 1.165 0 0 1 .5 8.485V4.906a1.165 1.165 0 0 1 1.165-1.165 1.86 1.86 0 0 0 1.86-1.86v-.216A1.165 1.165 0 0 1 4.691.502z"/><path stroke="#050505" stroke-linecap="round" stroke-linejoin="round" d="M6.099 5.885a1.239 1.239 0 0 1 2.477 0v1.413a1.239 1.239 0 1 1-2.477 0zm5.826 0a1.238 1.238 0 0 1 2.476 0v1.413a1.239 1.239 0 0 1-2.476 0z"/></svg>