<svg xmlns="http://www.w3.org/2000/svg" width="32" height="32" fill="none"><path fill="#484E53" d="M16 0C7.178 0 0 7.178 0 16c0 8.823 7.178 16 16 16s16-7.177 16-16c0-8.822-7.178-16-16-16m0 30.422c-7.952 0-14.422-6.47-14.422-14.422S8.048 1.578 16 1.578 30.422 8.048 30.422 16 23.952 30.422 16 30.422"/><path fill="#484E53" d="M23.14 10.787a3.48 3.48 0 0 0 1.664-1.965s-1 .723-2.362.808l-.025.014a3.8 3.8 0 0 0-2.81-1.237 3.813 3.813 0 0 0-3.7 4.74l-.018-.027s-4.085.234-7.936-3.979c0 0-1.702 2.894 1.213 5.106-.639.107-1.766-.468-1.766-.468s.064 3.042 3.085 3.787c-.49.128-1.404.17-1.702.043 0 0 .446 2.318 3.532 2.723-.788.447-2.256 1.808-5.575 1.553 0 0 2.384 1.957 6.809 1.68 4.425-.276 7.638-3.255 8.935-6.403 1.298-3.149.937-4.941.937-4.941s1.084-.57 1.83-1.93c-.345.102-1.622.414-2.097.53z"/></svg>