<?xml version="1.0" encoding="utf-8"?><!DOCTYPE svg PUBLIC "-//W3C//DTD SVG 1.1//EN" "http://www.w3.org/Graphics/SVG/1.1/DTD/svg11.dtd"><svg viewBox="0 0 800 800" xmlns="http://www.w3.org/2000/svg" xmlns:xlink="http://www.w3.org/1999/xlink"><style>:root>svg{display:none}:root>svg:target{display:block}</style><svg viewBox="0 0 32 32" id="dribbble-icon" xmlns="http://www.w3.org/2000/svg"><path d="M16 0C7.178 0 0 7.178 0 16s7.178 16 16 16 16-7.178 16-16S24.822 0 16 0m0 30.422c-7.952 0-14.422-6.47-14.422-14.422S8.048 1.578 16 1.578 30.422 8.048 30.422 16 23.952 30.422 16 30.422"/><path d="M15.933 7.058c-4.931 0-8.943 4.011-8.943 8.942 0 4.93 4.012 8.942 8.943 8.942 4.93 0 8.942-4.011 8.942-8.942 0-4.93-4.012-8.942-8.942-8.942m5.837 4.46a7.32 7.32 0 0 1 1.522 4.303c-1.866-.29-3.522-.248-4.974.01a32 32 0 0 0-.751-1.63c1.498-.636 2.96-1.502 4.203-2.683m-1.092-1.143c-1.12 1.062-2.464 1.842-3.85 2.413a33 33 0 0 0-2.565-3.96 7.35 7.35 0 0 1 6.415 1.547m-7.703-1.117-.232.19c.024.03 1.234 1.521 2.566 3.885-2.747.85-5.398.999-6.553 1.02a7.4 7.4 0 0 1 4.219-5.095M8.568 16l.002-.066c1.168-.001 4.274-.119 7.498-1.174q.36.72.683 1.454a12.86 12.86 0 0 0-6.439 4.537A7.33 7.33 0 0 1 8.568 16m2.89 5.844c.585-.864 2.433-3.185 5.884-4.184.598 1.594 1.085 3.335 1.317 5.148l.114-.014a7.3 7.3 0 0 1-2.84.57 7.33 7.33 0 0 1-4.475-1.52m8.683.193a25 25 0 0 0-1.233-4.713c1.246-.18 2.66-.184 4.254.075a7.38 7.38 0 0 1-3.021 4.638"/></svg><svg viewBox="0 0 21 21" id="face-icon" xmlns="http://www.w3.org/2000/svg"><path d="M10.5 17.25a5.24 5.24 0 0 1-4.375-2.347l1.25-.83a3.75 3.75 0 0 0 6.25 0l1.25.83A5.24 5.24 0 0 1 10.5 17.25m3-8.25a1.5 1.5 0 1 0 1.5 1.5A1.485 1.485 0 0 0 13.5 9m-6 0A1.5 1.5 0 1 0 9 10.5 1.485 1.485 0 0 0 7.5 9"/><path d="M21 10.5V9h-1.5V6a3.004 3.004 0 0 0-3-3H15V0h-1.5v3h-6V0H6v3H4.5a3.004 3.004 0 0 0-3 3v3H0v1.5h1.5v3.75H0v1.5h1.5V18a3.004 3.004 0 0 0 3 3h12a3.004 3.004 0 0 0 3-3v-2.25H21v-1.5h-1.5V10.5zM18 18a1.5 1.5 0 0 1-1.5 1.5h-12A1.5 1.5 0 0 1 3 18V6a1.5 1.5 0 0 1 1.5-1.5h12A1.5 1.5 0 0 1 18 6z"/></svg><svg viewBox="0 0 32 32" id="facebook" xmlns="http://www.w3.org/2000/svg"><path d="M16 0C7.178 0 0 7.178 0 16c0 8.823 7.178 16 16 16s16-7.177 16-16c0-8.822-7.178-16-16-16Zm0 30.422c-7.952 0-14.422-6.47-14.422-14.422C1.578 8.048 8.048 1.578 16 1.578c7.952 0 14.422 6.47 14.422 14.422 0 7.952-6.47 14.422-14.422 14.422Z"/><path d="M20.927 6.611h-3.47l-.024.001c-3.504.011-3.962 2.458-3.964 4.597a.268.268 0 0 0-.007.062v1.5h-2.398a.263.263 0 0 0-.263.264v3.702a.263.263 0 0 0 .263.263h2.398v8.125a.263.263 0 0 0 .263.263h3.5a.263.263 0 0 0 .263-.263V17h3.439a.263.263 0 0 0 .263-.262v-3.703a.263.263 0 0 0-.263-.263h-3.702v-1.99h3.702a.263.263 0 0 0 .263-.263V6.874a.263.263 0 0 0-.263-.263Z"/></svg><svg viewBox="0 0 32 32" id="instagramm-icon" xmlns="http://www.w3.org/2000/svg"><path d="M16 0C7.178 0 0 7.178 0 16s7.178 16 16 16 16-7.178 16-16S24.822 0 16 0m0 30.422c-7.952 0-14.422-6.47-14.422-14.422S8.048 1.578 16 1.578 30.422 8.048 30.422 16 23.952 30.422 16 30.422"/><path d="M21.002 8.293H10.989a2.68 2.68 0 0 0-2.678 2.679v10.059a2.68 2.68 0 0 0 2.678 2.678h10.013a2.68 2.68 0 0 0 2.678-2.678V10.97a2.68 2.68 0 0 0-2.678-2.678m-2.69 7.68a2.32 2.32 0 0 1-2.317 2.316 2.32 2.32 0 0 1-2.316-2.316c0-.634.257-1.208.67-1.627h3.293c.43.433.67 1.018.67 1.627m.671-5.536h2.346v2.416h-2.346zm2.019 11.694H10.989a1.1 1.1 0 0 1-1.1-1.1v-6.685h2.573a3.9 3.9 0 0 0-.36 1.627 3.9 3.9 0 0 0 3.893 3.894 3.9 3.9 0 0 0 3.895-3.894c0-.581-.132-1.13-.36-1.627h2.572v6.685a1.1 1.1 0 0 1-1.1 1.1"/></svg><svg viewBox="0 0 32 32" id="linkedIn-icon" xmlns="http://www.w3.org/2000/svg"><path d="M16 0C7.178 0 0 7.178 0 16c0 8.823 7.178 16 16 16s16-7.177 16-16c0-8.822-7.178-16-16-16m0 30.422c-7.952 0-14.422-6.47-14.422-14.422S8.048 1.578 16 1.578 30.422 8.048 30.422 16 23.952 30.422 16 30.422"/><path d="M7.873 12.61h3.703v9.66H7.873zm1.815-1.542c1.035 0 1.874-.765 1.874-1.71 0-.944-.839-1.71-1.874-1.71s-1.874.766-1.874 1.71c0 .945.84 1.71 1.874 1.71m11.195 1.323q-1.136 0-1.929.414-.791.415-1.564 1.378V12.61h-3.45v9.662h3.703v-4.64q0-1.32.419-1.828.418-.51 1.091-.51.61 0 .947.378.336.377.336 1.287v5.313h3.721v-6.14q0-1.911-.87-2.826-.867-.915-2.405-.914"/></svg><svg viewBox="0 0 23 23" id="moon-icon" xmlns="http://www.w3.org/2000/svg"><path d="M22.448 15.406c.255-.607-.474-1.125-1.085-.855a9.6 9.6 0 0 1-3.877.81c-5.231 0-9.471-4.155-9.471-9.28a9.1 9.1 0 0 1 1.417-4.888c.355-.56-.07-1.335-.72-1.17C3.7 1.3 0 5.766 0 11.078 0 17.386 5.219 22.5 11.658 22.5c4.874 0 9.05-2.931 10.79-7.094"/><path d="M15.764.129c-.663-.443-1.453.347-1.012 1.01l.788 1.181a2.915 2.915 0 0 1 0 3.235l-.788 1.181c-.44.663.35 1.453 1.013 1.01l1.18-.787a2.915 2.915 0 0 1 3.235 0l1.181.787c.663.443 1.453-.347 1.01-1.01l-.787-1.18a2.915 2.915 0 0 1 0-3.236l.787-1.181c.443-.663-.347-1.453-1.011-1.01l-1.18.787a2.915 2.915 0 0 1-3.235 0z"/></svg><svg viewBox="0 0 21 16" id="robo-face-icon" xmlns="http://www.w3.org/2000/svg"><path d="M15.498 3.22H5.002c-.85 0-1.538.69-1.538 1.54v3.92c0 .85.689 1.54 1.538 1.54h10.496c.85 0 1.539-.69 1.539-1.54V4.76c0-.85-.69-1.54-1.539-1.54"/><path d="M15.809.5a1.165 1.165 0 0 1 1.165 1.166v.215a1.86 1.86 0 0 0 1.86 1.86A1.165 1.165 0 0 1 20 4.906v3.579a1.165 1.165 0 0 1-1.165 1.165 1.86 1.86 0 0 0-1.86 1.86v.216a1.166 1.166 0 0 1-1.166 1.165h-9.36l-1.696 2.056c-.414.501-1.227.209-1.227-.441v-2.995a1.86 1.86 0 0 0-1.86-1.86A1.165 1.165 0 0 1 .5 8.485V4.906a1.165 1.165 0 0 1 1.165-1.165 1.86 1.86 0 0 0 1.86-1.86v-.216A1.165 1.165 0 0 1 4.691.502z"/><path d="M6.099 5.885a1.239 1.239 0 0 1 2.477 0v1.413a1.239 1.239 0 1 1-2.477 0zm5.826 0a1.238 1.238 0 0 1 2.476 0v1.413a1.239 1.239 0 0 1-2.476 0z"/></svg><svg viewBox="0 0 20 20" id="star-icon" xmlns="http://www.w3.org/2000/svg"><path d="M10 0v3m0 14v3M0 10h3m14 0h3M3 3l2.5 2.5m9 9L17 17M17 3l-2.5 2.5m-9 9L3 17"/><circle cx="10" cy="10" r="3.5"/></svg><svg viewBox="0 0 24 24" id="telegram" xmlns="http://www.w3.org/2000/svg"><path d="M21.1 5.1c-.1-.1-.3-.1-.5 0L3.1 12c-.3.1-.4.5-.2.7l4.5 1.5 1.7 5.5c.1.3.3.5.6.6.3.1.6 0 .8-.2l3.1-2.9 5.6 4.1c.2.1.4.2.6.1.2-.1.4-.3.5-.5l3.8-18.1c-2.7 2.7-2.8 2.4-3 2.3zM8.7 14.4l10.2-9.2-11.8 7.6 1.6 1.6z"/></svg><svg viewBox="0 0 32 32" id="twitter-icon" xmlns="http://www.w3.org/2000/svg"><path d="M16 0C7.178 0 0 7.178 0 16c0 8.823 7.178 16 16 16s16-7.177 16-16c0-8.822-7.178-16-16-16m0 30.422c-7.952 0-14.422-6.47-14.422-14.422S8.048 1.578 16 1.578 30.422 8.048 30.422 16 23.952 30.422 16 30.422"/><path d="M23.14 10.787a3.48 3.48 0 0 0 1.664-1.965s-1 .723-2.362.808l-.025.014a3.8 3.8 0 0 0-2.81-1.237 3.813 3.813 0 0 0-3.7 4.74l-.018-.027s-4.085.234-7.936-3.979c0 0-1.702 2.894 1.213 5.106-.639.107-1.766-.468-1.766-.468s.064 3.042 3.085 3.787c-.49.128-1.404.17-1.702.043 0 0 .446 2.318 3.532 2.723-.788.447-2.256 1.808-5.575 1.553 0 0 2.384 1.957 6.809 1.68 4.425-.276 7.638-3.255 8.935-6.403 1.298-3.149.937-4.941.937-4.941s1.084-.57 1.83-1.93c-.345.102-1.622.414-2.097.53z"/></svg><svg viewBox="0 0 54 54" xml:space="preserve" id="up-arrow" xmlns="http://www.w3.org/2000/svg"><path d="M27 53C12.641 53 1 41.359 1 27S12.641 1 27 1s26 11.641 26 26-11.641 26-26 26z"/><path d="M27 54C12.112 54 0 41.888 0 27S12.112 0 27 0s27 12.112 27 27-12.112 27-27 27zm0-52C13.215 2 2 13.215 2 27s11.215 25 25 25 25-11.215 25-25S40.785 2 27 2z"/><path d="M27 41.5a1 1 0 0 1-1-1v-26a1 1 0 1 1 2 0v26a1 1 0 0 1-1 1z"/><path d="M36.293 24.207 27 14.914l-9.293 9.293-1.414-1.414L27 12.086l10.707 10.707z"/></svg></svg>